<svg width="170" height="35" viewBox="0 0 170 35" fill="none" xmlns="http://www.w3.org/2000/svg">
<path d="M0.82196 2.17568H9.73932C12.3435 2.17568 14.6052 2.4558 16.5246 3.01606C18.444 3.57631 20.0314 4.38038 21.2868 5.42826C22.5525 6.46576 23.4915 7.73152 24.1036 9.22553C24.7261 10.7092 25.0373 12.3795 25.0373 14.2367C25.0373 16.0004 24.7313 17.6345 24.1192 19.1389C23.507 20.6329 22.5733 21.9298 21.3179 23.0295C20.0625 24.1189 18.4751 24.9749 16.5557 25.5974C14.6363 26.2095 12.3746 26.5156 9.77045 26.5156L0.82196 26.5V2.17568ZM10.9532 22.2359C12.4265 22.2359 13.7182 22.0491 14.8283 21.6756C15.9384 21.2917 16.8618 20.7522 17.5984 20.0571C18.3454 19.362 18.9057 18.5216 19.2792 17.5359C19.6527 16.5503 19.8394 15.4506 19.8394 14.2367C19.8394 13.0435 19.6527 11.9697 19.2792 11.0152C18.9057 10.0503 18.3454 9.2359 17.5984 8.5719C16.8618 7.89752 15.9384 7.37877 14.8283 7.01564C13.7182 6.65251 12.4265 6.47095 10.9532 6.47095H5.7553V22.2359H10.9532ZM31.8382 5.63057C31.3817 5.63057 30.9667 5.56832 30.5932 5.44382C30.2301 5.30894 29.9188 5.13257 29.6594 4.91469C29.4001 4.68644 29.1977 4.42706 29.0525 4.13656C28.9176 3.83569 28.8502 3.51925 28.8502 3.18724C28.8502 2.84487 28.9176 2.52843 29.0525 2.23793C29.1977 1.93705 29.4001 1.67767 29.6594 1.4598C29.9188 1.24192 30.2301 1.07073 30.5932 0.946231C30.9667 0.811356 31.3817 0.743918 31.8382 0.743918C32.3051 0.743918 32.7201 0.811356 33.0832 0.946231C33.4567 1.07073 33.7731 1.24192 34.0325 1.4598C34.2919 1.67767 34.489 1.93705 34.6239 2.23793C34.7692 2.52843 34.8418 2.84487 34.8418 3.18724C34.8418 3.51925 34.7692 3.83569 34.6239 4.13656C34.489 4.42706 34.2919 4.68644 34.0325 4.91469C33.7731 5.13257 33.4567 5.30894 33.0832 5.44382C32.7201 5.56832 32.3051 5.63057 31.8382 5.63057ZM29.5349 8.13615H34.1415V26.5H29.5349V8.13615ZM40.0552 8.13615H44.6618V9.69241C45.886 8.99728 47.0532 8.50965 48.1633 8.22952C49.2839 7.9494 50.3784 7.80933 51.4471 7.80933C52.8477 7.80933 54.1446 8.01683 55.3377 8.43184C56.5308 8.83646 57.5632 9.4434 58.4347 10.2527C59.3062 11.0619 59.9857 12.0735 60.4734 13.2874C60.9714 14.4909 61.2204 15.8863 61.2204 17.4737V26.5H56.6294V18.2207C56.6294 17.2143 56.4841 16.3169 56.1936 15.5284C55.9135 14.7295 55.5037 14.0603 54.9642 13.5208C54.4351 12.9709 53.7866 12.5559 53.0189 12.2758C52.2615 11.9853 51.4107 11.84 50.4666 11.84C49.9686 11.84 49.455 11.8919 48.9259 11.9957C48.4072 12.0994 47.8936 12.2499 47.3852 12.447C46.8872 12.6337 46.4048 12.8724 45.9379 13.1629C45.471 13.443 45.0456 13.7646 44.6618 14.1277V26.5H40.0552V8.13615ZM69.7642 29.6125C70.3452 29.82 70.9366 29.9912 71.5384 30.1261C72.1401 30.2713 72.7211 30.3855 73.2814 30.4685C73.852 30.5618 74.3967 30.6241 74.9154 30.6552C75.4342 30.6967 75.8959 30.7175 76.3005 30.7175C77.5248 30.7175 78.5882 30.567 79.4908 30.2661C80.4038 29.9756 81.1612 29.5814 81.763 29.0834C82.3751 28.5854 82.8316 28.0044 83.1325 27.3404C83.4334 26.6868 83.5838 25.9916 83.5838 25.255V24.4613C83.1895 24.7311 82.7279 24.9904 82.1987 25.2394C81.6696 25.4884 81.0886 25.7063 80.4557 25.8931C79.8228 26.0798 79.1485 26.2302 78.4326 26.3444C77.7271 26.4585 76.9956 26.5156 76.2383 26.5156C74.7339 26.5156 73.3436 26.2925 72.0675 25.8464C70.7914 25.3899 69.6864 24.757 68.7527 23.9477C67.8189 23.1281 67.0875 22.1477 66.5583 21.0064C66.0396 19.8652 65.7802 18.5994 65.7802 17.2091C65.7802 15.7878 66.0551 14.5012 66.605 13.3496C67.1549 12.1876 67.9123 11.1968 68.8772 10.3772C69.8524 9.55753 71.004 8.92465 72.332 8.47852C73.6601 8.0324 75.1022 7.80933 76.6584 7.80933C77.3225 7.80933 77.9813 7.85083 78.6349 7.93383C79.2885 8.01683 79.911 8.13096 80.5024 8.27621C81.1042 8.42146 81.6644 8.59784 82.1832 8.80534C82.7123 9.00246 83.1792 9.22034 83.5838 9.45897V8.13615H88.1903V24.3991C88.1903 26.0694 87.9361 27.5479 87.4278 28.8344C86.9194 30.1209 86.1724 31.1999 85.1867 32.0714C84.2115 32.9533 82.9976 33.6173 81.5451 34.0634C80.0926 34.5199 78.4274 34.7482 76.5495 34.7482C75.8751 34.7482 75.1748 34.717 74.4486 34.6548C73.7223 34.6029 72.9909 34.5199 72.2542 34.4058C71.528 34.302 70.8069 34.1724 70.091 34.0167C69.3855 33.8715 68.706 33.7003 68.0523 33.5032L69.7642 29.6125ZM70.6202 17.1624C70.6202 17.8991 70.7654 18.5942 71.0559 19.2478C71.3568 19.8911 71.7822 20.4565 72.332 20.9442C72.8819 21.4214 73.5459 21.8001 74.3241 22.0802C75.1022 22.35 75.9789 22.4849 76.9541 22.4849C77.587 22.4849 78.2147 22.4278 78.8372 22.3137C79.4701 22.1892 80.0718 22.018 80.6425 21.8001C81.2235 21.5822 81.763 21.3177 82.261 21.0064C82.7694 20.6952 83.2103 20.3476 83.5838 19.9637V13.9099C83.1169 13.5364 82.6241 13.2199 82.1054 12.9605C81.5866 12.7012 81.0575 12.4885 80.518 12.3225C79.9785 12.1565 79.4338 12.0372 78.8839 11.9645C78.334 11.8815 77.7997 11.84 77.281 11.84C76.2227 11.84 75.2786 11.9801 74.4486 12.2602C73.6289 12.5404 72.9338 12.9242 72.3632 13.4119C71.8029 13.8891 71.3724 14.4494 71.0715 15.0926C70.7706 15.7359 70.6202 16.4258 70.6202 17.1624ZM94.0107 2.17568H106.834C108.702 2.17568 110.32 2.37799 111.69 2.78262C113.059 3.18724 114.195 3.77343 115.098 4.54119C116.001 5.29857 116.67 6.22714 117.106 7.32689C117.552 8.42665 117.775 9.66647 117.775 11.0464C117.775 12.3432 117.557 13.5416 117.121 14.6413C116.685 15.7411 116.016 16.6956 115.114 17.5048C114.221 18.3037 113.09 18.9314 111.721 19.3879C110.351 19.834 108.733 20.0571 106.865 20.0571L98.9441 20.0415V26.5H94.0107V2.17568ZM106.959 15.7774C107.893 15.7774 108.707 15.6684 109.402 15.4506C110.108 15.2223 110.694 14.9059 111.161 14.5012C111.638 14.0862 111.991 13.5882 112.219 13.0072C112.458 12.4159 112.577 11.7622 112.577 11.0464C112.577 9.60422 112.105 8.48371 111.161 7.68483C110.227 6.87558 108.826 6.47095 106.959 6.47095H98.9441V15.7774H106.959ZM121.728 20.7107C121.728 19.8288 121.92 19.0248 122.304 18.2985C122.687 17.5723 123.263 16.9498 124.031 16.431C124.799 15.9019 125.753 15.4973 126.894 15.2171C128.046 14.9266 129.384 14.7814 130.91 14.7814C132.041 14.7814 133.228 14.8644 134.473 15.0304C135.729 15.1964 137.021 15.4506 138.349 15.7929C138.297 15.2119 138.12 14.6776 137.819 14.19C137.519 13.692 137.098 13.2666 136.559 12.9139C136.03 12.5507 135.386 12.2706 134.629 12.0735C133.882 11.8764 133.031 11.7778 132.077 11.7778C131.558 11.7778 130.987 11.8089 130.365 11.8712C129.742 11.9334 129.099 12.0268 128.435 12.1513C127.771 12.2758 127.112 12.4314 126.459 12.6182C125.815 12.8049 125.214 13.028 124.653 13.2874L123.253 9.50565C123.948 9.25665 124.69 9.0284 125.478 8.8209C126.277 8.6134 127.092 8.43702 127.922 8.29177C128.752 8.13615 129.582 8.01683 130.412 7.93383C131.242 7.85083 132.046 7.80933 132.824 7.80933C136.258 7.80933 138.81 8.68602 140.481 10.4394C142.151 12.1928 142.986 14.8799 142.986 18.5008V26.5H138.38V24.7726C137.902 25.0527 137.378 25.3172 136.808 25.5662C136.248 25.8152 135.635 26.0331 134.971 26.2199C134.307 26.4066 133.592 26.5519 132.824 26.6556C132.066 26.7698 131.262 26.8268 130.412 26.8268C128.98 26.8268 127.719 26.6712 126.63 26.3599C125.551 26.0487 124.648 25.6181 123.922 25.0682C123.196 24.5184 122.646 23.8751 122.272 23.1385C121.909 22.3915 121.728 21.5822 121.728 20.7107ZM126.583 20.5551C126.583 20.856 126.661 21.1465 126.817 21.4266C126.972 21.6963 127.221 21.9402 127.564 22.158C127.906 22.3655 128.342 22.5367 128.871 22.6716C129.41 22.7961 130.059 22.8584 130.816 22.8584C131.626 22.8584 132.409 22.7857 133.166 22.6405C133.924 22.4952 134.629 22.3033 135.283 22.0647C135.936 21.826 136.528 21.5511 137.057 21.2398C137.586 20.9286 138.027 20.607 138.38 20.275V19.4657C137.674 19.2686 136.974 19.1026 136.279 18.9677C135.594 18.8328 134.935 18.7291 134.302 18.6565C133.68 18.5735 133.088 18.5164 132.528 18.4853C131.978 18.4541 131.496 18.4386 131.081 18.4386C130.22 18.4386 129.504 18.4956 128.933 18.6098C128.363 18.7239 127.901 18.8795 127.548 19.0766C127.195 19.2634 126.946 19.4865 126.801 19.7458C126.656 20.0052 126.583 20.275 126.583 20.5551ZM151.281 28.8033C151.758 29.1145 152.277 29.3895 152.837 29.6281C153.398 29.8667 153.979 30.0638 154.58 30.2195C155.192 30.3751 155.815 30.4892 156.448 30.5618C157.081 30.6448 157.708 30.6863 158.331 30.6863C160.447 30.6863 162.076 30.2298 163.218 29.3168C164.369 28.4142 164.945 27.0551 164.945 25.2394V24.6169C164.54 24.8971 164.084 25.1564 163.576 25.3951C163.078 25.6233 162.538 25.8204 161.957 25.9864C161.386 26.1524 160.779 26.2821 160.136 26.3755C159.503 26.4585 158.86 26.5 158.206 26.5C156.806 26.5 155.55 26.2977 154.44 25.8931C153.341 25.4781 152.407 24.8763 151.639 24.0878C150.882 23.2889 150.301 22.3085 149.896 21.1465C149.491 19.9845 149.289 18.6565 149.289 17.1624V8.13615H153.88V15.8863C153.88 18.1066 154.3 19.7458 155.141 20.8041C155.991 21.852 157.33 22.3759 159.156 22.3759C160.442 22.3759 161.578 22.1529 162.564 21.7067C163.56 21.2502 164.354 20.6692 164.945 19.9637V8.13615H169.552V24.3991C169.552 26.1524 169.303 27.6724 168.805 28.9589C168.307 30.2558 167.58 31.3296 166.626 32.1803C165.682 33.0311 164.52 33.664 163.14 34.079C161.76 34.5044 160.193 34.717 158.44 34.717C156.728 34.717 155.13 34.5355 153.647 34.1724C152.163 33.8092 150.804 33.3164 149.569 32.6939L151.281 28.8033Z" fill="black"/>
</svg>
